<mxfile host="drawio-plugin" modified="2022-10-25T13:31:27.165Z" agent="5.0 (Windows NT 6.2; Win64; x64) AppleWebKit/537.36 (KHTML, like Gecko) Chrome/98.0.4758.102 Safari/537.36" etag="3OMPElsCotesvp1mXdUs" version="15.5.4" type="embed"><diagram id="59i5JWA1SFzED1EJEcdJ" name="Page-1"><mxGraphModel dx="1072" dy="735" grid="1" gridSize="10" guides="1" tooltips="1" connect="1" arrows="1" fold="1" page="1" pageScale="1" pageWidth="827" pageHeight="1169" math="0" shadow="0"><root><mxCell id="0"/><mxCell id="1" parent="0"/><mxCell id="kIEVBXZI-eHPA4-ElvWG-3" style="edgeStyle=orthogonalEdgeStyle;rounded=0;orthogonalLoop=1;jettySize=auto;html=1;entryX=0.5;entryY=0;entryDx=0;entryDy=0;" parent="1" source="kIEVBXZI-eHPA4-ElvWG-1" target="kIEVBXZI-eHPA4-ElvWG-2" edge="1"><mxGeometry relative="1" as="geometry"/></mxCell><mxCell id="kIEVBXZI-eHPA4-ElvWG-1" value="HAL &lt;i&gt;(API)&lt;/i&gt;" style="rounded=0;whiteSpace=wrap;html=1;" parent="1" vertex="1"><mxGeometry x="250" y="90" width="80" height="30" as="geometry"/></mxCell><mxCell id="kIEVBXZI-eHPA4-ElvWG-6" style="edgeStyle=orthogonalEdgeStyle;rounded=0;orthogonalLoop=1;jettySize=auto;html=1;entryX=0.5;entryY=0;entryDx=0;entryDy=0;" parent="1" source="kIEVBXZI-eHPA4-ElvWG-2" target="kIEVBXZI-eHPA4-ElvWG-5" edge="1"><mxGeometry relative="1" as="geometry"/></mxCell><mxCell id="kIEVBXZI-eHPA4-ElvWG-2" value="QD" style="text;html=1;strokeColor=none;fillColor=none;align=center;verticalAlign=middle;whiteSpace=wrap;rounded=0;" parent="1" vertex="1"><mxGeometry x="260" y="315" width="60" height="30" as="geometry"/></mxCell><mxCell id="kIEVBXZI-eHPA4-ElvWG-31" style="edgeStyle=orthogonalEdgeStyle;rounded=0;orthogonalLoop=1;jettySize=auto;html=1;entryX=0;entryY=0.5;entryDx=0;entryDy=0;startArrow=none;startFill=0;endArrow=classic;endFill=1;" parent="1" source="kIEVBXZI-eHPA4-ElvWG-5" target="kIEVBXZI-eHPA4-ElvWG-29" edge="1"><mxGeometry relative="1" as="geometry"/></mxCell><mxCell id="kIEVBXZI-eHPA4-ElvWG-35" style="edgeStyle=orthogonalEdgeStyle;rounded=0;orthogonalLoop=1;jettySize=auto;html=1;entryX=0.5;entryY=0;entryDx=0;entryDy=0;dashed=1;startArrow=none;startFill=0;endArrow=classic;endFill=1;" parent="1" source="kIEVBXZI-eHPA4-ElvWG-5" target="kIEVBXZI-eHPA4-ElvWG-1" edge="1"><mxGeometry relative="1" as="geometry"><Array as="points"><mxPoint x="220" y="550"/><mxPoint x="220" y="70"/><mxPoint x="290" y="70"/></Array></mxGeometry></mxCell><mxCell id="kIEVBXZI-eHPA4-ElvWG-5" value="Elasticsearch" style="rounded=0;whiteSpace=wrap;html=1;" parent="1" vertex="1"><mxGeometry x="240" y="535" width="100" height="30" as="geometry"/></mxCell><mxCell id="kIEVBXZI-eHPA4-ElvWG-11" style="edgeStyle=orthogonalEdgeStyle;rounded=0;orthogonalLoop=1;jettySize=auto;html=1;endArrow=none;endFill=0;startArrow=classic;startFill=1;" parent="1" source="kIEVBXZI-eHPA4-ElvWG-10" edge="1"><mxGeometry relative="1" as="geometry"><mxPoint x="290" y="295" as="targetPoint"/><Array as="points"><mxPoint x="537" y="285"/><mxPoint x="290" y="285"/></Array></mxGeometry></mxCell><mxCell id="kIEVBXZI-eHPA4-ElvWG-10" value="si DOI" style="text;html=1;strokeColor=none;fillColor=none;align=center;verticalAlign=middle;whiteSpace=wrap;rounded=0;fontStyle=1" parent="1" vertex="1"><mxGeometry x="506.5" y="305" width="60" height="30" as="geometry"/></mxCell><mxCell id="kIEVBXZI-eHPA4-ElvWG-14" style="edgeStyle=orthogonalEdgeStyle;rounded=0;orthogonalLoop=1;jettySize=auto;html=1;startArrow=classic;startFill=1;endArrow=none;endFill=0;" parent="1" source="kIEVBXZI-eHPA4-ElvWG-13" target="kIEVBXZI-eHPA4-ElvWG-10" edge="1"><mxGeometry relative="1" as="geometry"/></mxCell><mxCell id="kIEVBXZI-eHPA4-ElvWG-16" style="edgeStyle=orthogonalEdgeStyle;rounded=0;orthogonalLoop=1;jettySize=auto;html=1;startArrow=none;startFill=0;endArrow=classic;endFill=1;" parent="1" source="kIEVBXZI-eHPA4-ElvWG-13" edge="1"><mxGeometry relative="1" as="geometry"><mxPoint x="290" y="455" as="targetPoint"/><Array as="points"><mxPoint x="540" y="455"/></Array></mxGeometry></mxCell><mxCell id="kIEVBXZI-eHPA4-ElvWG-13" value="Dimensions" style="rounded=0;whiteSpace=wrap;html=1;" parent="1" vertex="1"><mxGeometry x="494" y="355" width="85" height="30" as="geometry"/></mxCell><mxCell id="kIEVBXZI-eHPA4-ElvWG-17" value="&lt;i&gt;FCR&lt;br&gt;nb. citations&lt;br&gt;&lt;br&gt;&lt;/i&gt;" style="text;html=1;strokeColor=none;fillColor=none;align=left;verticalAlign=top;whiteSpace=wrap;rounded=0;horizontal=1;" parent="1" vertex="1"><mxGeometry x="550" y="405" width="100" height="40" as="geometry"/></mxCell><mxCell id="kIEVBXZI-eHPA4-ElvWG-21" style="edgeStyle=orthogonalEdgeStyle;rounded=0;orthogonalLoop=1;jettySize=auto;html=1;startArrow=classic;startFill=1;endArrow=none;endFill=0;" parent="1" source="kIEVBXZI-eHPA4-ElvWG-20" edge="1"><mxGeometry relative="1" as="geometry"><mxPoint x="290" y="295" as="targetPoint"/><Array as="points"><mxPoint x="380" y="285"/><mxPoint x="290" y="285"/></Array></mxGeometry></mxCell><mxCell id="kIEVBXZI-eHPA4-ElvWG-22" style="edgeStyle=orthogonalEdgeStyle;rounded=0;orthogonalLoop=1;jettySize=auto;html=1;startArrow=none;startFill=0;endArrow=classic;endFill=1;" parent="1" source="kIEVBXZI-eHPA4-ElvWG-20" edge="1"><mxGeometry relative="1" as="geometry"><mxPoint x="290" y="455" as="targetPoint"/><Array as="points"><mxPoint x="380" y="455"/></Array></mxGeometry></mxCell><mxCell id="kIEVBXZI-eHPA4-ElvWG-20" value="HAL" style="rounded=0;whiteSpace=wrap;html=1;" parent="1" vertex="1"><mxGeometry x="340" y="355" width="80" height="30" as="geometry"/></mxCell><mxCell id="kIEVBXZI-eHPA4-ElvWG-23" value="&lt;i&gt;nb. vues&lt;br&gt;nb. télechargements&lt;br&gt;&lt;/i&gt;" style="text;html=1;strokeColor=none;fillColor=none;align=left;verticalAlign=top;whiteSpace=wrap;rounded=0;horizontal=1;" parent="1" vertex="1"><mxGeometry x="390" y="405" width="120" height="40" as="geometry"/></mxCell><mxCell id="kIEVBXZI-eHPA4-ElvWG-28" style="edgeStyle=orthogonalEdgeStyle;rounded=0;orthogonalLoop=1;jettySize=auto;html=1;entryX=0;entryY=0.5;entryDx=0;entryDy=0;startArrow=none;startFill=0;endArrow=none;endFill=0;dashed=1;" parent="1" source="kIEVBXZI-eHPA4-ElvWG-25" target="kIEVBXZI-eHPA4-ElvWG-2" edge="1"><mxGeometry relative="1" as="geometry"/></mxCell><mxCell id="kIEVBXZI-eHPA4-ElvWG-25" value="&lt;i&gt;Calcule la présence ou non (quantitatif)&lt;br&gt;&lt;/i&gt;&lt;br&gt;&lt;u&gt;Pondération :&lt;/u&gt;&lt;br&gt;titre&lt;span style=&quot;white-space: pre;&quot;&gt;&#9;&lt;/span&gt;&lt;span style=&quot;white-space: pre;&quot;&gt;&#9;&lt;span style=&quot;white-space: pre;&quot;&gt;&#9;&lt;/span&gt;&lt;/span&gt;0.1&lt;br&gt;date de pub.&lt;span style=&quot;white-space: pre;&quot;&gt;&#9;&lt;/span&gt;0.1&lt;br&gt;mots-clés&lt;span style=&quot;white-space: pre;&quot;&gt;&#9;&lt;/span&gt;&lt;span style=&quot;white-space: pre;&quot;&gt;&#9;&lt;/span&gt;1&lt;br&gt;résumé&lt;span style=&quot;white-space: pre;&quot;&gt;&#9;&lt;/span&gt;&lt;span style=&quot;white-space: pre;&quot;&gt;&#9;&lt;/span&gt;0.8&lt;br&gt;DOI&lt;span style=&quot;white-space: pre;&quot;&gt;&#9;&lt;/span&gt;&lt;span style=&quot;white-space: pre;&quot;&gt;&#9;&lt;/span&gt;&lt;span style=&quot;white-space: pre;&quot;&gt;&#9;&lt;/span&gt;0.6&lt;br&gt;domaine&lt;span style=&quot;white-space: pre;&quot;&gt;&#9;&lt;/span&gt;&lt;span style=&quot;white-space: pre;&quot;&gt;&#9;&lt;/span&gt;0.1" style="text;html=1;strokeColor=none;fillColor=#f5f5f5;align=left;verticalAlign=top;whiteSpace=wrap;rounded=0;horizontal=1;fontColor=#333333;spacingTop=2;spacingLeft=2;spacingBottom=2;spacingRight=2;" parent="1" vertex="1"><mxGeometry x="80" y="250" width="130" height="160" as="geometry"/></mxCell><mxCell id="kIEVBXZI-eHPA4-ElvWG-29" value="Kibana" style="rounded=0;whiteSpace=wrap;html=1;" parent="1" vertex="1"><mxGeometry x="360" y="535" width="100" height="30" as="geometry"/></mxCell><mxCell id="kIEVBXZI-eHPA4-ElvWG-34" style="edgeStyle=orthogonalEdgeStyle;rounded=0;orthogonalLoop=1;jettySize=auto;html=1;startArrow=none;startFill=0;endArrow=none;endFill=0;dashed=1;" parent="1" source="kIEVBXZI-eHPA4-ElvWG-33" edge="1"><mxGeometry relative="1" as="geometry"><mxPoint x="290" y="170" as="targetPoint"/><Array as="points"><mxPoint x="290" y="170"/></Array></mxGeometry></mxCell><mxCell id="kIEVBXZI-eHPA4-ElvWG-33" value="&lt;div&gt;&lt;i&gt;auteur&lt;/i&gt;&lt;/div&gt;&lt;div&gt;&lt;i&gt;université/institution&lt;/i&gt;&lt;/div&gt;&lt;div&gt;&lt;i&gt;laboratoire&lt;/i&gt;&lt;/div&gt;&lt;div&gt;&lt;i&gt;date de soumission&lt;/i&gt;&lt;/div&gt;&lt;div&gt;&lt;i&gt;date de modification&lt;/i&gt;&lt;/div&gt;&lt;div&gt;&lt;i&gt;date de publication&lt;/i&gt;&lt;/div&gt;&lt;div&gt;&lt;i&gt;statut de l'embargo (pre/postprint)&lt;/i&gt;&lt;/div&gt;&lt;div&gt;&lt;i&gt;type de contributeur (auteur/intermédiaire)&lt;/i&gt;&lt;/div&gt;&lt;div&gt;&lt;i&gt;DOI&lt;/i&gt;&lt;/div&gt;&lt;div&gt;&lt;i&gt;accès ouvert&lt;/i&gt;&lt;/div&gt;&lt;div&gt;&lt;i&gt;date de collecte&lt;/i&gt;&lt;/div&gt;" style="text;html=1;strokeColor=none;fillColor=#f5f5f5;align=left;verticalAlign=top;whiteSpace=wrap;rounded=0;horizontal=1;fontColor=#333333;spacingTop=2;spacingLeft=2;spacingBottom=2;spacingRight=2;" parent="1" vertex="1"><mxGeometry x="349" y="70" width="130" height="200" as="geometry"/></mxCell><mxCell id="4" value="MÀJ" style="text;html=1;strokeColor=none;fillColor=none;align=center;verticalAlign=middle;whiteSpace=wrap;rounded=0;fontFamily=Helvetica;fontSize=12;" vertex="1" parent="1"><mxGeometry x="220" y="40" width="70" height="30" as="geometry"/></mxCell></root></mxGraphModel></diagram></mxfile>